[Header]
FileType HTR
DataType HTRS
FileVersion 1
NumSegments 48
NumFrames 3
DataFrameRate 30
EulerRotationOrder ZYX
CalibrationUnits mm
RotationUnits Degrees
GlobalAxisofGravity Y
BoneLengthAxis Y
ScaleFactor 1.0
[SegmentNames&Hierarchy]
Wolf	GLOBAL
Becken	Wolf
Bauch	Becken
Bauch_001	Bauch
Brust	Bauch_001
Hals	Brust
Kopf_002	Hals
Kopf	Kopf_002
Unterkiefer	Kopf
Hals_fett	Unterkiefer
Maulunten	Unterkiefer
Mauloben	Kopf
MundW_L	Kopf
MundW_R	Kopf
Augen_con	Kopf
IK_Aug_R	Augen_con
IK_Aug_L	Augen_con
Aug_R	Kopf
aug_L	Kopf
Ohr_L	Kopf
Ohr_R	Kopf
Braun_O_L	Kopf
Braun_O_R	Kopf
aug_lied_O_L	Kopf
aug_lied_O_R	Kopf
aug_lied_U_L	Kopf
aug_lied_U_R	Kopf
Bauch_003	Brust
Schalterplatte_L	Bauch_003
Oberarm_L	Schalterplatte_L
Unterarm_L	Oberarm_L
Vorderpfote_L	Unterarm_L
Schalterplatte_R	Bauch_003
Oberarm_R	Schalterplatte_R
Unterarm_R	Oberarm_R
Vorderpfote_R	Unterarm_R
Schwanz	Becken
Schwanz_001	Schwanz
Schwanz_002	Schwanz_001
Schwanz_003	Schwanz_002
Oberschenkel_L	Becken
Unterschenkel_L	Oberschenkel_L
Pfote1_L	Unterschenkel_L
Pfote2_L	Pfote1_L
Oberschenkel_R	Becken
Unterschenkel_R	Oberschenkel_R
Pfote1_R	Unterschenkel_R
Pfote2_R	Pfote1_R
[BasePosition]
Wolf	0	0	0	0	0	0	1
Becken	0	0	0	0	0	0	1
Bauch	0	0	0	0	0	0	1
Bauch_001	0	0	0	0	0	0	1
Brust	0	0	0	0	0	0	1
Hals	0	0	0	0	0	0	1
Kopf_002	0	0	0	0	0	0	1
Kopf	0	0	0	0	0	0	1
Unterkiefer	0	0	0	0	0	0	1
Hals_fett	0	0	0	0	0	0	1
Maulunten	0	0	0	0	0	0	1
Mauloben	0	0	0	0	0	0	1
MundW_L	0	0	0	0	0	0	1
MundW_R	0	0	0	0	0	0	1
Augen_con	0	0	0	0	0	0	1
IK_Aug_R	0	0	0	0	0	0	1
IK_Aug_L	0	0	0	0	0	0	1
Aug_R	0	0	0	0	0	0	1
aug_L	0	0	0	0	0	0	1
Ohr_L	0	0	0	0	0	0	1
Ohr_R	0	0	0	0	0	0	1
Braun_O_L	0	0	0	0	0	0	1
Braun_O_R	0	0	0	0	0	0	1
aug_lied_O_L	0	0	0	0	0	0	1
aug_lied_O_R	0	0	0	0	0	0	1
aug_lied_U_L	0	0	0	0	0	0	1
aug_lied_U_R	0	0	0	0	0	0	1
Bauch_003	0	0	0	0	0	0	1
Schalterplatte_L	0	0	0	0	0	0	1
Oberarm_L	0	0	0	0	0	0	1
Unterarm_L	0	0	0	0	0	0	1
Vorderpfote_L	0	0	0	0	0	0	1
Schalterplatte_R	0	0	0	0	0	0	1
Oberarm_R	0	0	0	0	0	0	1
Unterarm_R	0	0	0	0	0	0	1
Vorderpfote_R	0	0	0	0	0	0	1
Schwanz	0	0	0	0	0	0	1
Schwanz_001	0	0	0	0	0	0	1
Schwanz_002	0	0	0	0	0	0	1
Schwanz_003	0	0	0	0	0	0	1
Oberschenkel_L	0	0	0	0	0	0	1
Unterschenkel_L	0	0	0	0	0	0	1
Pfote1_L	0	0	0	0	0	0	1
Pfote2_L	0	0	0	0	0	0	1
Oberschenkel_R	0	0	0	0	0	0	1
Unterschenkel_R	0	0	0	0	0	0	1
Pfote1_R	0	0	0	0	0	0	1
Pfote2_R	0	0	0	0	0	0	1
[Wolf]
28	0	0	0	-90	-0	0	1.0
29	0	0	0	-90	-0	0	1.0
30	0	0	0	-90	-0	0	1.0
[Becken]
28	0	0.5621799231	0.4297941625	1.934367657	169.3889313	90.69538116	1.0
29	0	0.5621799231	0.4403621554	1.855334997	169.3880157	90.66697693	1.0
30	0	0.5621799231	0.4543814659	1.746715784	169.3868103	90.62793732	1.0
[Bauch]
28	0.9404072165	7.335228958e-08	-0.3559131622	-9.70548399e-07	12.60522652	-8.885302805e-08	1.0
29	0.9404072165	7.335228958e-08	-0.3559131622	-9.70548399e-07	12.60522652	-8.885302805e-08	1.0
30	0.9404072165	7.335228958e-08	-0.3559131622	-9.70548399e-07	12.60522652	-8.885302805e-08	1.0
[Bauch_001]
28	1.081897616	8.323696221e-08	1.180524034e-08	-2.503413032e-09	2.360082865	-2.670307531e-08	1.0
29	1.081897616	8.323696221e-08	1.180524034e-08	-2.503413032e-09	2.360082865	-2.670307531e-08	1.0
30	1.081897616	8.323696221e-08	1.180524034e-08	-2.503413032e-09	2.360082865	-2.670307531e-08	1.0
[Brust]
28	1.069831252	8.440110832e-08	3.139576066e-08	5.110827715e-06	11.14620876	-3.549572648e-05	1.0
29	1.069831252	8.440110832e-08	3.139576066e-08	5.110827715e-06	11.57448292	-3.549572648e-05	1.0
30	1.069831252	8.440110832e-08	3.139576066e-08	5.110827715e-06	12.13827229	-3.549572648e-05	1.0
[Hals]
28	1.258022308	9.662471712e-08	0.6079561114	-4.810633527e-06	46.87745667	-2.341890877e-06	1.0
29	1.258022308	9.662471712e-08	0.6079561114	-4.810633527e-06	46.87745667	-2.341890877e-06	1.0
30	1.258022308	9.662471712e-08	0.6079561114	-4.810633527e-06	46.87745667	-2.341890877e-06	1.0
[Kopf_002]
28	1.752595186	3.012712114e-05	0.265181601	0.006653386634	-165.1497192	0.002557684667	1.0
29	1.752595186	3.012712114e-05	0.265181601	0.006653386634	-165.1497192	0.002557684667	1.0
30	1.752595186	3.012712114e-05	0.265181601	0.006653386634	-165.1497192	0.002557684667	1.0
[Kopf]
28	1.015782118	6.868503988e-08	-5.515175872e-08	0.06806672364	122.4616776	-0.02660133876	1.0
29	1.015782118	6.868503988e-08	-5.515175872e-08	0.06730113178	121.6053925	-0.02725181915	1.0
30	1.015782118	6.868503988e-08	-5.515175872e-08	0.06624121964	120.4778214	-0.02816086076	1.0
[Unterkiefer]
28	0.6370447874	0.004552732222	0.4060618579	5.412721634	-68.3888092	-3.093543291	1.0
29	0.6370447874	0.004552732222	0.4060618579	5.412721634	-68.3888092	-3.093543291	1.0
30	0.6370447874	0.004552732222	0.4060618579	5.412721634	-68.3888092	-3.093543291	1.0
[Hals_fett]
28	0.2998305857	0.007747137919	0.1206372604	-5.071650982	-59.35961151	5.585564613	1.0
29	0.2998305857	0.007747137919	0.1206372604	-5.071650982	-59.35961151	5.585564613	1.0
30	0.2998305857	0.007747137919	0.1206372604	-5.071650982	-59.35961151	5.585564613	1.0
[Maulunten]
28	0.0831861794	-0.007747565862	-0.1206544712	-3.322209358	38.97271347	-0.8718761206	1.0
29	0.0831861794	-0.007747565862	-0.1206544712	-3.322209358	38.97271347	-0.8718761206	1.0
30	0.0831861794	-0.007747565862	-0.1206544712	-3.322209358	38.97271347	-0.8718761206	1.0
[Mauloben]
28	0.9101490974	0.0004056713078	0.4003697634	-0.1032672822	-28.7776947	0.03543138877	1.0
29	0.9101490974	0.0004056713078	0.4003697634	-0.1032672822	-28.7776947	0.03543138877	1.0
30	0.9101490974	0.0004056713078	0.4003697634	-0.1032672822	-28.7776947	0.03543138877	1.0
[MundW_L]
28	0.673060894	-0.3618555963	0.3751283586	-179.8370972	-17.94885063	24.713974	1.0
29	0.673060894	-0.3618555963	0.3751283586	-179.8370972	-17.94885063	24.713974	1.0
30	0.673060894	-0.3618555963	0.3751283586	-179.8370972	-17.94885063	24.713974	1.0
[MundW_R]
28	0.6732419133	0.3627035022	0.3739836514	179.665329	-18.02427101	-24.69083595	1.0
29	0.6732419133	0.3627035022	0.3739836514	179.665329	-18.02427101	-24.69083595	1.0
30	0.6732419133	0.3627035022	0.3739836514	179.665329	-18.02427101	-24.69083595	1.0
[Augen_con]
28	1.807373166	-0.0001604110003	0.183581531	0.0982221961	157.1545258	0.02385941334	1.0
29	1.807373166	-0.0001604110003	0.183581531	0.0982221961	157.1545258	0.02385941334	1.0
30	1.807373166	-0.0001604110003	0.183581531	0.0982221961	157.1545258	0.02385941334	1.0
[IK_Aug_R]
28	0.3461295962	0.2943200469	-1.071020961e-07	-0.4194760025	-4.963055134	165.6946411	1.0
29	0.3461295962	0.2943200469	-1.071020961e-07	-0.4194760025	-4.963055134	165.6946411	1.0
30	0.3461295962	0.2943200469	-1.071020961e-07	-0.4194760025	-4.963055134	165.6946411	1.0
[IK_Aug_L]
28	0.3461301029	-0.2943200171	-1.967418939e-07	0.4194771945	-4.963055134	-165.6946411	1.0
29	0.3461301029	-0.2943200171	-1.967418939e-07	0.4194771945	-4.963055134	-165.6946411	1.0
30	0.3461301029	-0.2943200171	-1.967418939e-07	0.4194771945	-4.963055134	-165.6946411	1.0
[Aug_R]
28	1.035154939	0.2207805216	-0.09605780989	176.004776	-17.29167175	12.85548782	1.0
29	1.035154939	0.2207805216	-0.09605780989	176.004776	-17.29167175	12.85548782	1.0
30	1.035154939	0.2207805216	-0.09605780989	176.004776	-17.29167175	12.85548782	1.0
[aug_L]
28	1.03504467	-0.2215988934	-0.09535907209	-176.1891022	-17.33180046	-12.83102131	1.0
29	1.03504467	-0.2215988934	-0.09535907209	-176.1891022	-17.33180046	-12.83102131	1.0
30	1.03504467	-0.2215988934	-0.09535907209	-176.1891022	-17.33180046	-12.83102131	1.0
[Ohr_L]
28	0.6407766938	-0.3659991026	-0.6893324852	-24.34923935	53.07765961	-15.02013397	1.0
29	0.6407766938	-0.3659991026	-0.6893324852	-24.34923935	53.07765961	-15.02013397	1.0
30	0.6407766938	-0.3659991026	-0.6893324852	-24.34923935	53.07765961	-15.02013397	1.0
[Ohr_R]
28	0.640958488	0.36349985	-0.690484941	24.05785561	53.12415695	14.75856686	1.0
29	0.640958488	0.36349985	-0.690484941	24.05785561	53.12415695	14.75856686	1.0
30	0.640958488	0.36349985	-0.690484941	24.05785561	53.12415695	14.75856686	1.0
[Braun_O_L]
28	0.9801894426	-0.3706049323	-0.3292509615	-143.317215	-34.69636154	52.39493942	1.0
29	0.9801894426	-0.3706049323	-0.3292509615	-143.317215	-34.69636154	52.39493942	1.0
30	0.9801894426	-0.3706049323	-0.3292509615	-143.317215	-34.69636154	52.39493942	1.0
[Braun_O_R]
28	0.9803640842	0.3690741956	-0.3304226995	143.1826782	-34.83971405	-52.34676361	1.0
29	0.9803640842	0.3690741956	-0.3304226995	143.1826782	-34.83971405	-52.34676361	1.0
30	0.9803640842	0.3690741956	-0.3304226995	143.1826782	-34.83971405	-52.34676361	1.0
[aug_lied_O_L]
28	1.038882375	-0.3271433413	-0.1608109176	-175.8613434	-20.15596771	60.31667709	1.0
29	1.038882375	-0.3271433413	-0.1608109176	-175.8613434	-20.15596771	60.31667709	1.0
30	1.038882375	-0.3271433413	-0.1608109176	-175.8613434	-20.15596771	60.31667709	1.0
[aug_lied_O_R]
28	1.039044976	0.326115787	-0.1618431658	175.7657928	-20.31324005	-60.31218338	1.0
29	1.039044976	0.326115787	-0.1618431658	175.7657928	-20.31324005	-60.31218338	1.0
30	1.039044976	0.326115787	-0.1618431658	175.7657928	-20.31324005	-60.31218338	1.0
[aug_lied_U_L]
28	1.02191329	-0.3312865198	-0.1338392347	-159.8099365	-28.7482872	60.17462158	1.0
29	1.02191329	-0.3312865198	-0.1338392347	-159.8099365	-28.7482872	60.17462158	1.0
30	1.02191329	-0.3312865198	-0.1338392347	-159.8099365	-28.7482872	60.17462158	1.0
[aug_lied_U_R]
28	1.022078872	0.3303525448	-0.1348842829	159.7071381	-28.90532303	-60.15359116	1.0
29	1.022078872	0.3303525448	-0.1348842829	159.7071381	-28.90532303	-60.15359116	1.0
30	1.022078872	0.3303525448	-0.1348842829	159.7071381	-28.90532303	-60.15359116	1.0
[Bauch_003]
28	1.276869178	9.429641068e-08	-0.6079563498	-3.842957085e-06	-137.6799469	1.008550771e-05	1.0
29	1.276869178	9.429641068e-08	-0.6079563498	-3.842957085e-06	-137.6799469	1.008550771e-05	1.0
30	1.276869178	9.429641068e-08	-0.6079563498	-3.842957085e-06	-137.6799469	1.008550771e-05	1.0
[Schalterplatte_L]
28	1.107183218	-0.4056739211	0.175023213	-3.119011164	70.49966431	-29.39870262	1.0
29	1.08612442	-0.4036905766	0.1619216949	-5.727536201	71.48294067	-32.19579697	1.0
30	1.058519125	-0.4007719159	0.1443547159	-9.619503021	72.76042175	-36.32686234	1.0
[Oberarm_L]
28	1.418636799	1.443549991e-07	9.778887033e-08	-69.30713654	-64.19480896	83.52577209	1.0
29	1.418636799	1.443549991e-07	9.778887033e-08	-75.79192352	-65.03113556	91.21613312	1.0
30	1.418636799	1.443549991e-07	9.778887033e-08	-83.73295593	-65.57197571	100.5581818	1.0
[Unterarm_L]
28	2.028227329	8.847563748e-08	-3.725290298e-07	4.605481148	50.09819031	4.98990345	1.0
29	2.028227329	8.847563748e-08	-3.725290298e-07	5.822907925	52.90784073	6.278864384	1.0
30	2.028227329	8.847563748e-08	-3.725290298e-07	7.421533108	56.0365448	7.97836113	1.0
[Vorderpfote_L]
28	1.705947638	1.746229827e-07	-5.704351125e-08	-13.36073112	82.81349945	-11.70877743	1.0
29	1.705947638	1.746229827e-07	-5.704351125e-08	-16.61702538	76.77709198	-14.15004349	1.0
30	1.705947638	1.746229827e-07	-5.704351125e-08	-18.05288506	67.68412018	-14.40213013	1.0
[Schalterplatte_R]
28	0.9834519029	0.3826832473	-0.1150128692	40.54881287	79.1612854	69.04576874	1.0
29	0.9762675762	0.3827248514	-0.1077447087	34.59502792	78.40841675	62.88121796	1.0
30	0.9666799307	0.3827664554	-0.09783236682	28.47544098	77.39893341	56.57522583	1.0
[Oberarm_R]
28	1.418636322	-1.210719205e-07	-7.450580597e-08	43.48986435	-52.68553925	-49.86771011	1.0
29	1.418636322	-1.210719205e-07	-7.450580597e-08	43.34119415	-52.49668503	-49.74470901	1.0
30	1.418636322	-1.210719205e-07	-7.450580597e-08	43.6295433	-52.58710861	-50.20135498	1.0
[Unterarm_R]
28	2.028231859	1.676380634e-07	-3.608874977e-07	0.6201277971	47.17258453	0.9806863666	1.0
29	2.028231859	1.676380634e-07	-3.608874977e-07	0.5208891034	46.04812241	0.8754630685	1.0
30	2.028231859	1.676380634e-07	-3.608874977e-07	0.3907834589	45.03302383	0.7319735289	1.0
[Vorderpfote_R]
28	1.705937624	7.799826562e-08	1.461012289e-07	2.084082842	64.04504395	1.573777676	1.0
29	1.705937624	7.799826562e-08	1.461012289e-07	2.448714733	68.10608673	1.97449553	1.0
30	1.705937624	7.799826562e-08	1.461012289e-07	2.866760731	71.69750977	2.42269969	1.0
[Schwanz]
28	-0.1660730243	-1.382431947e-08	0.1023170948	-2.220226997e-05	-112.2143097	2.181978562e-05	1.0
29	-0.1588034779	-1.382431947e-08	0.09824316204	-2.220226997e-05	-113.031929	2.181978562e-05	1.0
30	-0.1491570324	-1.382431947e-08	0.09293097258	-2.220226997e-05	-114.108551	2.181978562e-05	1.0
[Schwanz_001]
28	0.9104328156	6.868503988e-08	7.788912626e-08	-2.408194405e-06	5.352884293	-5.75290926e-07	1.0
29	0.9104328156	6.868503988e-08	7.788912626e-08	-2.408194405e-06	6.467141628	-5.75290926e-07	1.0
30	0.9104328156	6.868503988e-08	7.788912626e-08	-2.408194405e-06	7.934822083	-5.75290926e-07	1.0
[Schwanz_002]
28	0.7855660319	5.704351125e-08	-1.185253495e-07	8.174235973e-07	-10.98767281	-1.362372615e-07	1.0
29	0.7855660319	5.704351125e-08	-1.185253495e-07	8.174235973e-07	-10.18140221	-1.362372615e-07	1.0
30	0.7855660319	5.704351125e-08	-1.185253495e-07	8.174235973e-07	-9.119739532	-1.362372615e-07	1.0
[Schwanz_003]
28	0.8350355029	6.286426668e-08	-2.072192729e-07	-2.187832479e-06	-0.7164853811	1.867661581e-07	1.0
29	0.8350355029	6.286426668e-08	-2.072192729e-07	-2.187832479e-06	-1.143135428	1.867661581e-07	1.0
30	0.8350355029	6.286426668e-08	-2.072192729e-07	-2.187832479e-06	-1.70478785	1.867661581e-07	1.0
[Oberschenkel_L]
28	0.5593823195	-0.5836999416	0.1172839254	-166.7321472	-126.0828552	172.5286865	1.0
29	0.5765351057	-0.5836999416	0.1152593046	-166.443634	-124.8021317	172.1759796	1.0
30	0.5987977386	-0.5836999416	0.1112907976	-165.9825287	-122.9366226	171.6219635	1.0
[Unterschenkel_L]
28	1.686439037	6.984918599e-08	-6.053597446e-08	-18.74826622	-45.13493347	28.92089081	1.0
29	1.686439037	6.984918599e-08	-6.053597446e-08	-18.51496887	-45.03212357	28.69938087	1.0
30	1.686439037	6.984918599e-08	-6.053597446e-08	-18.07727242	-44.63759995	28.25241852	1.0
[Pfote1_L]
28	1.190900326	6.519258022e-08	1.396983862e-07	2.126641035	34.7923317	-6.157736778	1.0
29	1.190900326	6.519258022e-08	1.396983862e-07	2.110199213	35.07426071	-6.186443806	1.0
30	1.190900326	6.519258022e-08	1.396983862e-07	2.095181942	35.32907486	-6.212525368	1.0
[Pfote2_L]
28	0.9876257777	7.450580597e-08	-5.587935092e-08	-9.539518356	78.74456024	-16.53383064	1.0
29	0.9876257777	7.450580597e-08	-5.587935092e-08	-10.09179878	79.58464813	-17.07041359	1.0
30	0.9876257777	7.450580597e-08	-5.587935092e-08	-10.84880447	80.71208954	-17.79389381	1.0
[Oberschenkel_R]
28	0.4452021718	0.5837000012	0.1164446399	-67.72794342	-83.91675568	63.4706459	1.0
29	0.4465284348	0.5837000012	0.09852558374	-46.54309845	-81.70347595	42.12858582	1.0
30	0.4489667416	0.5837000012	0.07535280287	-31.2487793	-78.09983063	26.63525009	1.0
[Unterschenkel_R]
28	1.68644917	1.164153218e-07	2.793967901e-08	13.77525616	-45.06578827	-19.59013748	1.0
29	1.68644917	1.164153218e-07	2.793967901e-08	15.86996555	-49.5905304	-21.82381248	1.0
30	1.68644917	1.164153218e-07	2.793967901e-08	19.0126133	-54.92976761	-25.17644501	1.0
[Pfote1_R]
28	1.190900087	1.856824383e-07	4.190951941e-08	-1.858794928	22.45025635	6.760608196	1.0
29	1.190900087	1.856824383e-07	4.190951941e-08	-1.886653662	23.53305435	6.68969965	1.0
30	1.190900087	1.856824383e-07	4.190951941e-08	-1.922199368	24.83863449	6.602846146	1.0
[Pfote2_R]
28	0.9876258373	6.984919754e-09	6.635672634e-08	11.1661644	78.215271	14.70310211	1.0
29	0.9876258373	6.984919754e-09	6.635672634e-08	14.75599575	79.6210022	18.47606659	1.0
30	0.9876258373	6.984919754e-09	6.635672634e-08	20.4775753	81.23474884	24.43870163	1.0
[EndOfFile]
